<svg viewBox="0 0 313.8 305.7" version="1.1" xmlns="http://www.w3.org/2000/svg" id="Layer_1">
  
  <defs>
    <style>
      .st0 {
        fill: #3d2819;
      }
    </style>
  </defs>
  <path d="M288.9,255.1l-33.7-58.3,3.2-1.6c5.6-2.8,8.8-8.4,8.4-14.6l-1.4-22.1c-.1-1.8.3-3.3,1.3-4.8l12.2-18.5c3.4-5.2,3.4-11.6,0-16.8l-12.2-18.5c-1-1.5-1.4-3-1.3-4.8l1.4-22.1c.4-6.2-2.8-11.8-8.4-14.6l-19.9-9.9c-1.6-.8-2.7-1.9-3.5-3.5l-9.9-19.9c-2.7-5.5-8.3-8.8-14.6-8.4l-22.1,1.4c-1.8.1-3.3-.3-4.8-1.3l-18.5-12.2c-5.1-3.4-11.8-3.4-16.8,0l-18.5,12.2c-1.5,1-3,1.4-4.8,1.3l-22.1-1.4c-6.2-.4-11.8,2.9-14.6,8.4l-9.9,19.9c-.8,1.6-1.9,2.7-3.5,3.5l-19.8,9.9c-5.6,2.8-8.8,8.4-8.4,14.6l1.4,22.1c0,1.8-.3,3.3-1.3,4.8l-12.2,18.5c-3.5,5.2-3.5,11.7,0,16.8l12.2,18.5c1,1.5,1.4,3,1.3,4.8l-1.4,22.1c-.4,6.2,2.8,11.8,8.4,14.6l3.2,1.6-33.7,58.3c-1.9,3.3-1.6,7.2.7,10.2,2.3,3,6,4.2,9.6,3.3l37-9.9c.9-.2,1.8.3,2,1.2l9.9,37.1c1,3.6,3.9,6.2,7.7,6.7.4,0,.8,0,1.2,0,3.2,0,6.2-1.7,7.9-4.6l34.1-59,13.5,8.9c2.6,1.7,5.4,2.6,8.4,2.6s5.9-.9,8.4-2.6l13.5-8.9,34.1,59c1.7,2.9,4.6,4.6,7.9,4.6s.8,0,1.2,0c3.7-.5,6.7-3.1,7.6-6.7l9.9-37.1c.2-.9,1.2-1.4,2-1.2l37.1,9.9c3.6,1,7.3-.3,9.6-3.3,2.3-3,2.6-6.9.7-10.1h0ZM94.5,295.3c-.4.6-1,.9-1.6.8-.7,0-1.2-.5-1.4-1.2l-9.9-37.1c-1.3-4.9-6.3-7.8-11.2-6.5l-37.1,9.9c-.7.2-1.3,0-1.7-.6s-.5-1.2-.1-1.8l33.9-58.7,9.9,4.9c1.6.8,2.7,1.9,3.5,3.5l9.9,19.8c2.8,5.6,8.3,8.8,14.6,8.4l22.1-1.4c1.2,0,2.3.1,3.4.6l-34.2,59.3h0ZM161.2,242.7c-2.6,1.8-5.9,1.7-8.6,0l-18.5-12.2c-2.6-1.7-5.3-2.6-8.3-2.6s-.7,0-1,0l-22.1,1.4c-3.2.2-6-1.4-7.4-4.3l-9.9-19.8c-1.5-3.1-3.8-5.3-6.9-6.9l-19.8-9.9c-2.9-1.4-4.5-4.2-4.3-7.4l1.4-22.1c.2-3.4-.6-6.5-2.5-9.4l-12.2-18.5c-1.8-2.7-1.8-5.9,0-8.6l12.2-18.5c1.9-2.9,2.7-5.9,2.5-9.4l-1.4-22.1c-.2-3.2,1.4-6,4.3-7.4l19.8-9.9c3.1-1.5,5.3-3.8,6.9-6.9l9.9-19.9c1.4-2.8,4.2-4.5,7.4-4.3l22.1,1.4c.4,0,.7,0,1,0,3,0,5.8-.8,8.3-2.5l18.5-12.2c2.6-1.8,5.9-1.8,8.6,0l18.5,12.2c2.9,1.9,5.9,2.7,9.4,2.5l22.1-1.4c3.2-.2,6,1.4,7.4,4.3l9.9,19.9c1.5,3.1,3.8,5.3,6.9,6.9l19.8,9.9c2.9,1.4,4.5,4.2,4.3,7.4l-1.4,22.1c-.2,3.4.6,6.5,2.5,9.4l12.2,18.5c1.8,2.7,1.8,5.9,0,8.6l-12.2,18.5c-1.9,2.9-2.7,5.9-2.5,9.4l1.4,22.1c.2,3.2-1.4,6-4.3,7.4l-19.8,9.9c-3.1,1.5-5.3,3.8-6.9,6.9l-9.9,19.9c-1.4,2.8-4.2,4.5-7.4,4.3l-22.1-1.4c-3.5-.2-6.5.6-9.4,2.5l-18.5,12.2h0ZM282.3,260.7c-.4.6-1,.8-1.7.6l-37.1-9.9c-4.9-1.3-9.9,1.6-11.2,6.5l-9.9,37.1c-.2.7-.7,1.1-1.4,1.2-.7,0-1.3-.2-1.6-.8l-34.2-59.3c1.1-.5,2.2-.6,3.4-.6l22.1,1.4c6.2.4,11.9-2.9,14.6-8.4l9.9-19.9c.8-1.6,1.9-2.7,3.5-3.5l9.9-4.9,33.9,58.7c.3.6.3,1.3-.1,1.8h0ZM238.2,125.1c0-44.8-36.4-81.2-81.2-81.2s-81.2,36.4-81.2,81.2,36.4,81.2,81.2,81.2,81.2-36.4,81.2-81.2ZM156.9,198.8c-40.7,0-73.7-33.1-73.7-73.7s33.1-73.7,73.7-73.7,73.8,33.1,73.8,73.7-33.1,73.7-73.8,73.7ZM202,103.2l-50.2,50.2c-1.8,1.8-4.8,1.8-6.6,0l-33.4-33.4c-1.8-1.8-1.8-4.8,0-6.6.9-.9,2-1.4,3.3-1.4s2.4.5,3.3,1.4l27.4,27.4c1.4,1.4,3.9,1.4,5.3,0l44.2-44.2c1.8-1.8,4.8-1.8,6.6,0,.9.9,1.4,2,1.4,3.3,0,1.2-.5,2.4-1.4,3.3h0Z" class="st0"></path>
</svg>