<svg viewBox="0 0 313.8 305.7" version="1.1" xmlns="http://www.w3.org/2000/svg" id="Layer_1">
  
  <defs>
    <style>
      .st0 {
        fill: #3d2819;
      }
    </style>
  </defs>
  <path d="M66.3,183.7c0,1.9-1.6,3.5-3.5,3.5s-3.5-1.6-3.5-3.5V59.7c0-1.9,1.5-3.5,3.5-3.5s3.5,1.6,3.5,3.5v124h0ZM103,186.1v23.2c0,.5.2.9.5,1.2h0c.3.3.7.5,1.2.5h84.7c2.4,0,4.5,1,6.1,2.5,1.6,1.6,2.5,3.7,2.5,6.1v42.1c0,2.4-1,4.5-2.5,6.1-1.6,1.6-3.7,2.5-6.1,2.5h-84.7c-.5,0-.9.2-1.2.5h0c-.3.3-.5.8-.5,1.2v23.2c0,1.6-.4,3.1-1.2,4.5-.8,1.3-2,2.4-3.4,3.2-1.4.8-3,1.1-4.5,1-1.6-.1-3.1-.6-4.4-1.6L11.8,247.8c-1.2-.8-2.1-1.9-2.7-3.1-.6-1.2-1-2.6-1-4s.3-2.8,1-4c.6-1.2,1.5-2.3,2.7-3.1l77.6-54.6c1.3-.9,2.8-1.5,4.4-1.6,1.5-.1,3.1.2,4.5,1s2.6,1.9,3.4,3.2c.8,1.4,1.2,2.9,1.2,4.5h0ZM96.1,209.3v-23.2c0-.4,0-.7-.2-.9-.1-.3-.4-.5-.7-.6-.3-.2-.6-.2-.9-.2-.3,0-.6.1-.9.3L15.7,239.3c-.2.2-.4.4-.6.6s-.2.5-.2.8,0,.6.2.8c.1.2.3.4.6.6l77.6,54.6c.3.2.6.3.9.3.3,0,.6,0,.9-.2.3-.2.6-.4.7-.6s.2-.6.2-.9v-23.2c0-2.4,1-4.5,2.5-6.1h0c1.6-1.6,3.7-2.5,6.1-2.5h84.7c.5,0,.9-.2,1.2-.5.3-.3.5-.8.5-1.2v-42.1c0-.5-.2-.9-.5-1.2-.3-.3-.7-.5-1.2-.5h-84.7c-2.4,0-4.5-1-6.1-2.5h0,0c-1.6-1.6-2.5-3.7-2.5-6.1h0ZM182.6,51.5h-109.4c-1.8,0-3.3-.7-4.4-1.9-.6-.7-1.2-1.5-1.5-2.4-.3-.8-.5-1.8-.5-2.6,0-1.8.7-3.7,2.1-5.1l30.4-29.4c.9-.8,1.6-1.7,2.4-2.5,2.8-3.1,5.1-5.8,9.5-5.8h142.7c4.4,0,6.8,2.7,9.5,5.8.7.8,1.5,1.7,2.4,2.5l30.4,29.4c1.5,1.4,2.1,3.3,2.1,5.1s-.2,1.8-.5,2.6c-.3.9-.8,1.7-1.5,2.4h0c-1.1,1.2-2.6,1.9-4.4,1.9h-109.4ZM75.1,44h214.8l-29.4-28.5c-1-1-1.9-2-2.8-3-1.5-1.7-2.8-3.2-3.9-3.2H111.2c-1,0-2.3,1.5-3.9,3.2-.8,1-1.8,2-2.8,3l-29.5,28.5h0ZM298.8,59.7c0-1.9,1.5-3.5,3.5-3.5s3.5,1.6,3.5,3.5v179.5c0,2.4-.9,4.7-2.4,6.3-1.6,1.7-3.8,2.8-6.2,2.8h-87.6c-1.9,0-3.4-1.5-3.4-3.4s1.5-3.4,3.4-3.4h87.6c.4,0,.8-.2,1.1-.5.4-.4.6-1,.6-1.7V59.7h0ZM144.1,85.6c-1.9,0-3.4-1.5-3.4-3.4s1.5-3.5,3.4-3.5h76.8c1.9,0,3.5,1.6,3.5,3.5s-1.6,3.4-3.5,3.4h-76.8Z" class="st0"></path>
</svg>