<svg viewBox="0 0 313.8 305.7" version="1.1" xmlns="http://www.w3.org/2000/svg" id="Layer_1">
  
  <defs>
    <style>
      .st0 {
        fill: #3d2819;
        fill-rule: evenodd;
      }
    </style>
  </defs>
  <path d="M75,87.3c0-2.2,1.8-3.9,3.9-3.9h142.1c1.2,0,2.3.5,3.1,1.5s1,2.2.8,3.3l-7.4,32.4h45.4c1.1,0,2.1.5,2.9,1.3l43,46.2c.9.9,1.2,2.2,1,3.5l-9.6,48.5c-.4,1.9-2,3.1-3.8,3.1h-14c-2.1,12.5-13,22-26.2,22s-24.1-9.5-26.2-22h-81.1c-2.1,12.5-13.1,22-26.2,22s-24.6-10-26.4-22.9h-19.5c-1.7,0-3-1.3-3-3s1.3-3,3-3h19.3c1.2-13.5,12.6-24,26.5-24s24.7,10.1,26.4,23.1h38.9l20.8-91.7,7.4-32.4H78.9c-2.2,0-3.9-1.8-3.9-3.9h0q0,0,0,0ZM293,215.3h-10.5c-1.6-13.1-12.8-23.1-26.4-23.1s-24.7,10.1-26.4,23.1h-33.8l19.8-86.9h45.5l40.5,43.5-8.6,43.3h-.1c0,0,0,0,0,0ZM57.7,116.6c0-2.2,1.8-3.9,3.9-3.9h51.5c2.2,0,3.9,1.8,3.9,3.9s-1.8,3.9-3.9,3.9h-51.5c-2.2,0-3.9-1.8-3.9-3.9ZM32.8,154.4c0-2.2,1.8-3.9,3.9-3.9h67.3c2.2,0,3.9,1.8,3.9,3.9s-1.8,3.9-3.9,3.9H36.7c-2.2,0-3.9-1.8-3.9-3.9ZM4.5,191.5c0-2.2,1.8-3.9,3.9-3.9h83.2c2.2,0,3.9,1.8,3.9,3.9s-1.8,3.9-3.9,3.9H8.4c-2.2,0-3.9-1.8-3.9-3.9h0ZM141.3,218.6c0,10.2-8.4,18.6-18.7,18.6s-18.7-8.4-18.7-18.6,8.4-18.6,18.7-18.6,18.7,8.4,18.7,18.6ZM256.1,237.2c10.4,0,18.7-8.4,18.7-18.6s-8.4-18.6-18.7-18.6-18.7,8.4-18.7,18.6,8.4,18.6,18.7,18.6Z" class="st0"></path>
</svg>